<?xml version="1.0" encoding="UTF-8"?>
<svg id="Layer_1" data-name="Layer 1" xmlns="http://www.w3.org/2000/svg" viewBox="0 0 111.39 48.24">
  <defs>
    <style>
      .cls-1 {
        fill: #e87927;
      }

      .cls-1, .cls-2, .cls-3 {
        stroke-width: 0px;
      }

      .cls-2 {
        fill-rule: evenodd;
      }

      .cls-2, .cls-3 {
        fill: #fff;
      }
    </style>
  </defs>
  <path class="cls-1" d="M96.27,17.74l-.44-.41,11.68-10.81c.62.3,1.39.21,1.91-.26.64-.59.64-1.55,0-2.14-.64-.59-1.67-.59-2.31,0-.49.46-.6,1.13-.33,1.69l-11.7,10.83-.44-.41s5.41-5.73,7.77-16.23h-40.48v40.82h49.47V11.08c-9.8,2.37-15.12,6.67-15.12,6.67"/>
  <path class="cls-3" d="M67.72,16.1h.89c.47,0,.83.09,1.08.27.25.18.37.43.37.76,0,.19-.05.35-.15.51-.1.15-.24.28-.43.37.31.1.54.24.71.42.16.19.24.41.24.67,0,.35-.14.63-.41.86-.27.23-.63.34-1.06.34h-1.24v-4.18ZM68.17,16.51v1.34h.26c.4,0,.69-.06.88-.18.19-.12.29-.3.29-.55,0-.41-.3-.62-.91-.62h-.52ZM68.17,18.27v1.6h.56c.33,0,.56-.03.72-.09.15-.06.28-.15.38-.28.1-.13.14-.26.14-.39s-.03-.25-.08-.35c-.05-.1-.14-.19-.24-.27-.11-.08-.23-.13-.38-.17-.15-.04-.43-.06-.83-.06h-.25Z"/>
  <path class="cls-3" d="M68.97,20.32h-1.28v-4.25h.93c.48,0,.85.09,1.1.28.26.18.38.45.38.78,0,.19-.05.36-.15.52-.09.14-.21.25-.37.34.28.1.49.23.65.4.17.19.25.43.25.69,0,.36-.14.66-.42.89-.28.23-.64.35-1.08.35M67.76,20.25h1.21c.42,0,.77-.11,1.03-.33.26-.22.4-.5.4-.83,0-.25-.08-.46-.23-.64-.16-.18-.39-.32-.69-.41l-.09-.03.08-.03c.18-.09.32-.21.42-.35.1-.15.14-.31.14-.49,0-.32-.12-.56-.35-.73-.24-.17-.59-.26-1.06-.26h-.85v4.11ZM68.73,19.91h-.6v-1.67h.29c.42,0,.69.02.84.06.16.04.29.1.4.18.12.09.2.18.25.28.06.1.09.23.09.36s-.05.27-.15.41c-.1.13-.23.23-.39.29-.15.06-.39.09-.73.09M68.21,19.84h.52c.33,0,.56-.03.7-.09.15-.06.27-.14.36-.27.09-.12.14-.24.14-.37s-.02-.24-.08-.33c-.05-.1-.13-.18-.23-.26-.1-.07-.22-.13-.37-.17-.14-.04-.41-.05-.82-.05h-.22v1.53ZM68.43,17.88h-.3v-1.41h.56c.63,0,.94.22.94.65,0,.26-.1.45-.31.58-.2.12-.5.18-.9.18M68.21,17.81h.22c.39,0,.67-.06.86-.17.18-.11.27-.28.27-.52,0-.39-.28-.58-.87-.58h-.48v1.27Z"/>
  <polygon class="cls-3" points="72.59 16.1 75.18 16.1 75.18 16.52 73.04 16.52 73.04 17.82 75.16 17.82 75.16 18.23 73.04 18.23 73.04 19.87 75.16 19.87 75.16 20.28 72.59 20.28 72.59 16.1"/>
  <path class="cls-3" d="M75.2,20.32h-2.65v-4.25h2.67v.49h-2.14v1.23h2.12v.48h-2.12v1.57h2.12v.48ZM72.63,20.25h2.5v-.34h-2.12v-1.71h2.12v-.34h-2.12v-1.38h2.14v-.35h-2.52v4.11Z"/>
  <polygon class="cls-3" points="76.77 16.51 76.77 16.1 79.25 16.1 79.25 16.51 78.24 16.51 78.24 20.28 77.78 20.28 77.78 16.51 76.77 16.51"/>
  <path class="cls-3" d="M78.28,20.32h-.54v-3.77h-1.01v-.48h2.56v.48h-1.01v3.77ZM77.82,20.25h.38v-3.77h1.01v-.34h-2.41v.34h1.01v3.77Z"/>
  <polygon class="cls-3" points="80.71 16.51 80.71 16.1 83.19 16.1 83.19 16.51 82.18 16.51 82.18 20.28 81.72 20.28 81.72 16.51 80.71 16.51"/>
  <path class="cls-3" d="M82.22,20.32h-.54v-3.77h-1.01v-.48h2.56v.48h-1.01v3.77ZM81.76,20.25h.38v-3.77h1.01v-.34h-2.41v.34h1.01v3.77Z"/>
  <polygon class="cls-3" points="85.1 16.1 87.69 16.1 87.69 16.52 85.55 16.52 85.55 17.82 87.67 17.82 87.67 18.23 85.55 18.23 85.55 19.87 87.67 19.87 87.67 20.28 85.1 20.28 85.1 16.1"/>
  <path class="cls-3" d="M87.71,20.32h-2.65v-4.25h2.67v.49h-2.14v1.23h2.12v.48h-2.12v1.57h2.12v.48ZM85.14,20.25h2.5v-.34h-2.12v-1.71h2.12v-.34h-2.12v-1.38h2.14v-.35h-2.52v4.11Z"/>
  <path class="cls-3" d="M89.75,16.1h.9c.51,0,.85.02,1.03.06.18.04.34.11.48.2.13.09.24.21.31.36.08.15.11.31.11.49,0,.36-.14.64-.41.84-.28.2-.66.3-1.16.28l1.63,1.95h-.56l-1.62-1.95h-.26v1.95h-.45v-4.18ZM90.2,16.51v1.42h.78c.39,0,.67-.05.85-.17.18-.11.27-.3.27-.54s-.09-.43-.27-.54c-.18-.11-.46-.17-.84-.17h-.8Z"/>
  <path class="cls-3" d="M92.72,20.32h-.67s-1.61-1.95-1.61-1.95h-.2v1.95h-.53v-4.25h.94c.5,0,.86.02,1.04.06.19.04.35.11.49.21.14.1.25.22.32.37.08.15.12.32.12.5,0,.37-.14.66-.42.87-.26.19-.62.29-1.08.29h-.02l1.63,1.94ZM92.1,20.25h.46l-1.63-1.95h.08s.07,0,.1,0c.44,0,.79-.09,1.03-.28.26-.19.39-.47.39-.81,0-.17-.04-.33-.11-.47-.07-.14-.17-.26-.3-.35-.13-.09-.28-.15-.46-.19-.18-.04-.53-.06-1.02-.06h-.86v4.11h.38v-1.95h.31v.02s1.62,1.93,1.62,1.93ZM91.03,17.97h-.05s-.82,0-.82,0v-1.49h.83c.39,0,.67.05.86.17.19.12.29.31.29.57s-.1.45-.29.57c-.18.12-.46.17-.83.17M90.24,17.9h.79c.35,0,.62-.05.78-.16.17-.11.26-.28.26-.52s-.08-.4-.25-.51c-.17-.11-.44-.16-.82-.16h-.76v1.35Z"/>
  <polygon class="cls-3" points="67.26 23.37 67.26 22.95 69.74 22.95 69.74 23.37 68.74 23.37 68.74 27.14 68.28 27.14 68.28 23.37 67.26 23.37"/>
  <path class="cls-3" d="M68.77,27.17h-.53v-3.77h-1.01v-.48h2.56v.48h-1.01v3.77ZM68.31,27.1h.38v-3.77h1v-.34h-2.4v.34h1.01v3.77Z"/>
  <path class="cls-3" d="M71.45,25.07c0-.4.1-.78.32-1.12.21-.34.5-.61.86-.8.37-.2.76-.3,1.19-.3s.83.1,1.2.29c.37.19.66.46.87.8.21.34.32.71.32,1.11s-.1.77-.32,1.11c-.21.34-.5.61-.86.8-.37.2-.77.29-1.2.29s-.83-.1-1.2-.29c-.37-.2-.66-.46-.87-.8-.21-.34-.32-.7-.32-1.09M75.75,25.05c0-.5-.19-.93-.56-1.27-.38-.35-.83-.52-1.36-.52s-1,.17-1.36.52c-.36.35-.55.77-.55,1.27s.19.93.56,1.27c.38.34.83.52,1.36.52s.98-.17,1.35-.51c.37-.34.56-.76.56-1.28"/>
  <path class="cls-3" d="M73.84,27.28c-.43,0-.84-.1-1.22-.29-.37-.2-.67-.47-.89-.81-.21-.34-.32-.71-.32-1.11s.11-.79.32-1.13c.21-.35.5-.62.88-.82.37-.2.78-.3,1.21-.3s.85.1,1.22.29c.37.19.67.47.89.81.21.34.32.72.32,1.12s-.1.78-.32,1.13c-.21.34-.5.62-.88.81-.37.2-.78.3-1.22.3M73.82,22.89c-.42,0-.81.1-1.17.29-.36.19-.64.45-.85.79-.21.34-.31.7-.31,1.1s.1.75.32,1.08c.21.33.49.59.86.78.36.19.76.28,1.18.28s.82-.09,1.18-.29c.36-.19.65-.46.85-.79.21-.34.31-.7.31-1.09s-.1-.76-.31-1.09c-.21-.33-.5-.6-.86-.78-.36-.19-.76-.28-1.18-.28M73.84,26.87c-.54,0-1-.18-1.38-.53-.38-.35-.57-.79-.57-1.3s.19-.94.55-1.29c.37-.35.84-.53,1.39-.53s1.01.18,1.38.53c.38.35.57.78.57,1.29s-.19.96-.57,1.31c-.37.34-.83.51-1.37.51M73.83,23.29c-.53,0-.97.17-1.33.51-.35.34-.53.76-.53,1.24s.19.91.55,1.24c.37.34.81.51,1.33.51s.96-.17,1.32-.5c.36-.33.54-.75.54-1.26s-.19-.91-.55-1.24c-.37-.35-.8-.51-1.33-.51"/>
  <path class="cls-3" d="M82.75,23.65l-.35.31c-.25-.22-.53-.4-.83-.52-.3-.12-.61-.17-.93-.17s-.64.08-.96.23c-.32.16-.57.37-.75.65-.18.27-.27.56-.27.87,0,.49.2.92.6,1.28.4.37.89.55,1.49.55.45,0,.84-.12,1.17-.35.32-.24.52-.56.58-.96h-1.44v-.4h1.95c-.01.67-.23,1.18-.64,1.55-.42.37-.96.56-1.63.56-.77,0-1.39-.22-1.86-.66-.46-.44-.69-.95-.69-1.55s.23-1.1.69-1.54c.46-.43,1.07-.65,1.82-.65s1.43.27,2.04.8"/>
  <path class="cls-3" d="M80.74,27.28c-.78,0-1.42-.23-1.88-.67-.47-.44-.7-.97-.7-1.57s.24-1.12.7-1.57c.47-.43,1.09-.66,1.84-.66s1.45.28,2.07.82l.03.02-.4.36-.03-.02c-.25-.22-.52-.39-.82-.51-.29-.12-.6-.18-.91-.18s-.63.08-.94.23c-.31.15-.56.37-.73.63-.17.26-.26.55-.26.85,0,.48.19.9.59,1.26.38.35.88.54,1.46.54.44,0,.83-.12,1.14-.34.3-.22.49-.52.56-.9h-1.44v-.47h2.03v.04c-.01.67-.23,1.2-.65,1.58-.42.38-.98.57-1.65.57M80.71,22.89c-.74,0-1.34.21-1.79.64-.45.43-.68.94-.68,1.51s.23,1.09.68,1.52c.45.43,1.07.65,1.83.65.66,0,1.2-.18,1.6-.55.4-.36.61-.86.63-1.49h-1.87v.33h1.45v.04c-.07.41-.27.74-.6.98-.33.24-.73.36-1.19.36-.61,0-1.12-.19-1.52-.56-.4-.37-.61-.81-.61-1.31,0-.32.09-.62.28-.89.18-.27.43-.5.76-.66.32-.16.65-.24.98-.24s.63.06.94.18c.29.12.56.29.81.5l.29-.26c-.59-.51-1.26-.77-1.99-.77"/>
  <polygon class="cls-3" points="85.13 22.95 87.72 22.95 87.72 23.37 85.58 23.37 85.58 24.67 87.7 24.67 87.7 25.08 85.58 25.08 85.58 26.73 87.7 26.73 87.7 27.14 85.13 27.14 85.13 22.95"/>
  <path class="cls-3" d="M87.74,27.17h-2.65v-4.25h2.67v.49h-2.14v1.23h2.12v.48h-2.12v1.57h2.12v.48ZM85.17,27.1h2.5v-.34h-2.12v-1.71h2.12v-.34h-2.12v-1.38h2.14v-.35h-2.51v4.11Z"/>
  <polygon class="cls-3" points="89.31 23.37 89.31 22.95 91.79 22.95 91.79 23.37 90.78 23.37 90.78 27.14 90.32 27.14 90.32 23.37 89.31 23.37"/>
  <path class="cls-3" d="M90.82,27.17h-.53v-3.77h-1.01v-.48h2.56v.48h-1.01v3.77ZM90.36,27.1h.38v-3.77h1.01v-.34h-2.41v.34h1.02v3.77Z"/>
  <polygon class="cls-3" points="93.69 22.95 94.15 22.95 94.15 24.71 96.45 24.71 96.45 22.95 96.9 22.95 96.9 27.14 96.45 27.14 96.45 25.12 94.15 25.12 94.15 27.14 93.69 27.14 93.69 22.95"/>
  <path class="cls-3" d="M96.94,27.17h-.53v-2.02h-2.22v2.02h-.54v-4.25h.54v1.76h2.22v-1.76h.53v4.25ZM96.49,27.1h.38v-4.11h-.38v1.75h-2.37v-1.75h-.38v4.11h.38v-2.02h2.37v2.02Z"/>
  <polygon class="cls-3" points="99.26 22.95 101.85 22.95 101.85 23.37 99.71 23.37 99.71 24.67 101.84 24.67 101.84 25.08 99.71 25.08 99.71 26.73 101.84 26.73 101.84 27.14 99.26 27.14 99.26 22.95"/>
  <path class="cls-3" d="M101.87,27.17h-2.65v-4.25h2.67v.49h-2.14v1.23h2.12v.48h-2.12v1.57h2.12v.48ZM99.3,27.1h2.5v-.34h-2.12v-1.71h2.12v-.34h-2.12v-1.38h2.14v-.35h-2.52v4.11Z"/>
  <path class="cls-3" d="M103.91,22.95h.9c.5,0,.85.02,1.03.06.19.04.34.11.48.2.13.09.24.21.31.36.07.14.11.31.11.49,0,.36-.14.64-.41.84-.27.21-.66.3-1.15.29l1.63,1.94h-.56l-1.63-1.94h-.26v1.94h-.46v-4.18ZM104.37,23.37v1.42h.78c.39,0,.67-.05.85-.17.18-.12.27-.3.27-.55s-.09-.43-.27-.54c-.18-.11-.46-.17-.84-.17h-.8Z"/>
  <path class="cls-3" d="M106.88,27.17h-.66l-1.62-1.94h-.2v1.94h-.53v-4.25h.94c.52,0,.86.02,1.04.06.19.04.35.11.49.21.14.1.25.22.32.37.08.15.12.32.12.5,0,.37-.14.66-.42.87-.26.2-.62.3-1.08.3h-.02l1.63,1.94ZM106.27,27.1h.46l-1.63-1.95h.08s.07,0,.1,0c.44,0,.79-.1,1.03-.28.26-.19.39-.46.39-.81,0-.17-.04-.33-.11-.47-.07-.14-.17-.26-.3-.35-.13-.09-.28-.16-.46-.2-.18-.04-.51-.06-1.02-.06h-.86v4.11h.38v-1.94h.31l1.62,1.94ZM105.18,24.82h-.85v-1.49h.84c.39,0,.67.06.86.17.19.12.29.31.29.57s-.09.45-.29.57c-.18.11-.47.17-.84.17M104.4,24.75h.77c.36,0,.63-.05.8-.16.17-.11.26-.28.26-.51s-.09-.41-.25-.51c-.17-.11-.45-.16-.82-.16h-.76v1.35Z"/>
  <path class="cls-2" d="M10.69,32.43l-.21-.53-.28-.49-.02-.03-.37-.48-.43-.43-.49-.37-.55-.32.54-.62.05-.09.33-.58.23-.73.08-.78-.07-.74-.21-.63-.02-.05-.88-1.19-1.39-.81-.85-.2-.95-.07H.13v14.24h5.72l.99-.07,1.76-.56,1.42-1.09.41-.6.06-.08.28-.76.09-.84-.04-.56-.13-.55ZM2.64,25.61h2.57l.37.02.35.07,1.13.98.04.3-.06.56-.9,1.09-1.89.41-.83.03h-.77v-3.46ZM2.64,35.21v-3.81h2.38l.75.04.66.12,1.44.79.49,1.16-.05.4-1.12,1.06-1.33.24h-3.21Z"/>
  <polygon class="cls-2" points="3.47 5.7 10.09 13.58 14.36 8.47 16.68 5.7 16.68 20.44 20.08 20.44 20.08 5.7 20.08 1.13 16.23 1.13 10.09 8.47 7.76 5.7 3.94 1.13 .07 1.13 .07 20.44 3.47 20.44 3.47 5.7"/>
  <polygon class="cls-2" points="31.94 21.05 33.27 21.1 34.96 20.99 36.79 20.67 38.78 20.13 40.91 19.37 40.91 17.93 40.91 15.94 38.67 16.81 36.66 17.43 34.88 17.8 33.33 17.93 31.51 17.8 29.92 17.41 28.55 16.77 27.4 15.87 26.49 14.79 25.84 13.62 25.45 12.34 25.32 10.96 25.45 9.54 25.85 8.23 26.53 7.01 27.47 5.89 28.66 4.96 30.08 4.29 31.73 3.89 33.61 3.76 35.3 3.88 37.08 4.25 38.95 4.86 40.91 5.72 40.91 3.76 40.91 2.24 38.95 1.53 37.08 1.02 35.31 .72 33.64 .61 30.97 .83 28.56 1.49 26.49 2.51 24.85 3.84 23.58 5.39 22.65 7.13 22.08 9 21.89 10.93 21.94 11.89 22.31 13.76 23.05 15.54 24.12 17.17 25.5 18.6 27.29 19.76 29.48 20.61 31.94 21.05"/>
  <path class="cls-2" d="M51.82,20.35l2.39-.76,1.93-1.48.55-.81.07-.11.38-1.03.13-1.14-.06-.76-.17-.74-.29-.72-.38-.66-.02-.04-.5-.65-.58-.58-.67-.5-.75-.43.73-.85.07-.12.45-.79.31-.98.1-1.05-.1-1-.28-.87-.02-.05-1.2-1.62-1.88-1.1-1.15-.28-1.29-.09h-6.88v19.31h7.75l1.34-.1ZM46.12,4.28h3.48l.5.03.47.09,1.39.96.19.77-.08.76-1.22,1.48-1.57.44-2.11.15h-1.05v-4.69ZM46.12,12.14h3.23l1.02.05.9.16,1.43.63,1.11,1.45.07.57-.07.54-.98,1.19-1.71.54-.64.04h-4.36v-5.16Z"/>
  <path class="cls-2" d="M23.55,31.27l-2.07-4.5-1.6-3.48h-2.23l-6.55,14.24h2.71l1.82-3.92h6.28l1.82,3.92h2.71l-1.8-3.92-1.08-2.34ZM16.68,31.27l2.07-4.5,2.09,4.5h-4.15Z"/>
  <polygon class="cls-2" points="40.04 33.88 33.57 26.87 30.27 23.29 27.77 23.29 27.77 37.53 30.27 37.53 30.27 26.87 40.13 37.53 42.55 37.53 42.55 33.88 42.55 23.27 40.04 23.27 40.04 33.88"/>
  <polygon class="cls-2" points="49.94 30.71 49.18 30.02 49.82 29.38 55.91 23.3 52.48 23.3 46.39 29.38 46.39 23.27 43.88 23.27 43.88 37.53 46.39 37.53 46.39 30.71 53.78 37.53 57.33 37.53 49.94 30.71"/>
  <path class="cls-3" d="M5.25,48.08l-.18-1.85c-.01-.15-.02-.3-.03-.45-.01-.15-.02-.31-.02-.48h-.02c-.06.16-.14.33-.22.49-.08.16-.16.32-.24.46l-1.02,1.84h-.53l-1.03-1.84c-.08-.15-.16-.3-.24-.46-.08-.16-.15-.32-.22-.48h-.02c0,.17,0,.33-.02.48-.01.15-.02.3-.03.44l-.17,1.85H0l.47-5.03h1.07l1.18,2.11c.08.15.17.32.28.52.1.2.19.38.27.55h.02c.07-.17.15-.34.24-.53.09-.19.18-.37.28-.54l1.17-2.11h1.08l.48,5.03h-1.29Z"/>
  <path class="cls-3" d="M11.6,48.11h-.85l-.51-1.41c-.05-.11-.09-.22-.12-.34-.04-.12-.07-.25-.11-.38h-.02c-.03.14-.07.26-.11.38-.04.12-.07.23-.11.33l-.51,1.42h-.86l-1.35-3.6h1.14l.48,1.35c.04.11.07.21.1.33.03.11.06.23.09.34h.02c.03-.11.06-.23.09-.34.03-.12.07-.23.1-.33l.48-1.35h.95l.49,1.34c.04.11.07.22.1.34.03.11.06.23.09.34h.02c.03-.12.06-.23.09-.35.03-.11.07-.23.11-.33l.48-1.34h1.09l-1.35,3.6Z"/>
  <path class="cls-3" d="M16.66,48.19c-.39-.03-.66-.16-.82-.4-.13.14-.29.24-.48.3-.19.07-.39.1-.6.1-.2,0-.38-.03-.55-.08-.17-.05-.32-.13-.44-.23-.13-.1-.23-.23-.3-.37-.07-.14-.11-.31-.11-.49,0-.33.12-.6.37-.8.25-.2.56-.32.94-.36l.77-.07v-.13c0-.11-.05-.2-.14-.27-.09-.07-.25-.1-.46-.1s-.43.02-.64.07c-.2.05-.37.11-.49.17l-.09-.88c.15-.07.34-.13.58-.18.24-.05.48-.07.71-.07.54,0,.97.12,1.28.37.31.25.47.6.47,1.06v1.02c0,.16.04.28.12.37.08.09.19.14.32.16l-.43.8ZM15.47,46.52l-.52.05c-.18.02-.31.07-.39.16-.08.09-.11.19-.11.3,0,.1.04.18.11.24.08.07.18.1.29.1.15,0,.29-.05.42-.15.13-.1.19-.23.19-.38v-.33Z"/>
  <path class="cls-3" d="M18.91,48.24c-.13,0-.26-.04-.4-.1-.14-.06-.26-.14-.37-.25-.11-.11-.21-.24-.28-.4-.07-.16-.11-.34-.11-.54v-4.48h1.23v4.39c0,.17.05.3.14.39.09.1.21.16.34.18l-.55.8Z"/>
  <path class="cls-3" d="M21.43,43.34s-.02.1-.07.17c-.05.07-.11.13-.17.2-.07.06-.14.12-.21.16-.07.04-.14.06-.19.06s-.11-.02-.19-.06c-.07-.04-.14-.1-.21-.16-.06-.06-.12-.13-.17-.2-.05-.07-.07-.13-.07-.17s.02-.11.07-.17c.05-.07.11-.13.17-.2.07-.06.14-.12.21-.16.07-.04.14-.07.19-.07s.11.02.19.07c.07.04.14.1.21.16.07.06.13.13.17.2.05.07.07.13.07.17M20.16,44.51h1.26v3.57h-1.26v-3.57Z"/>
  <path class="cls-3" d="M27.1,48.08v-2.2c0-.13-.05-.23-.15-.3-.1-.08-.23-.11-.41-.11s-.32.04-.43.12c-.11.08-.17.18-.17.32v2.18h-1.25v-2.2c0-.13-.05-.23-.15-.3-.1-.08-.24-.11-.42-.11-.17,0-.31.04-.42.12-.11.08-.17.18-.17.32v2.18h-1.25v-3.57h1.1l.03.36c.1-.12.24-.23.43-.31.19-.09.42-.13.69-.13s.48.04.66.13c.18.09.33.2.43.32.11-.13.28-.23.52-.32.23-.09.49-.13.77-.13.45,0,.8.11,1.05.34.25.23.37.52.37.89v2.43h-1.25Z"/>
  <path class="cls-3" d="M31.73,48.08l-.03-.36c-.11.14-.27.25-.45.33-.19.08-.42.12-.7.12-.21,0-.4-.03-.58-.09-.18-.06-.33-.15-.45-.26-.12-.11-.22-.24-.29-.4-.07-.16-.11-.34-.11-.54v-2.38h1.25v2.13c0,.13.05.25.14.35.1.1.24.15.44.15s.35-.05.46-.15c.11-.1.17-.22.17-.36v-2.11h1.25v3.57h-1.1Z"/>
  <path class="cls-3" d="M39.84,44.31c-.14-.08-.32-.16-.53-.22-.21-.06-.47-.09-.76-.09-.25,0-.48.04-.7.11-.21.07-.4.18-.56.32-.16.14-.28.31-.38.5s-.14.41-.14.65.05.45.14.64c.09.19.22.36.38.5.16.14.35.25.58.32.22.07.46.11.72.11.29,0,.55-.03.78-.08.22-.06.41-.13.56-.22l-.11,1.1c-.15.08-.35.15-.58.2-.23.05-.51.07-.84.07-.36,0-.71-.06-1.07-.17-.35-.11-.67-.28-.95-.5-.28-.22-.51-.5-.68-.82-.17-.33-.26-.71-.26-1.14s.09-.81.26-1.14c.18-.33.4-.6.69-.82.28-.22.6-.39.95-.5.35-.11.71-.17,1.06-.17s.64.03.9.09c.26.06.47.13.64.22l-.09,1.06Z"/>
  <path class="cls-3" d="M44.63,46.3c0,.28-.06.53-.17.76-.11.23-.26.43-.45.6-.19.17-.41.3-.66.39-.26.09-.53.14-.82.14s-.56-.05-.82-.14c-.26-.09-.48-.22-.67-.39-.19-.17-.34-.37-.45-.6-.11-.23-.17-.49-.17-.76s.06-.53.17-.77c.11-.23.26-.43.45-.6.19-.17.41-.3.67-.39.26-.09.53-.14.82-.14s.56.05.82.14c.26.09.48.22.66.39.19.17.34.37.45.6.11.23.17.49.17.77M43.43,46.3c0-.13-.02-.25-.07-.37-.05-.11-.11-.21-.2-.3-.08-.08-.18-.15-.28-.19-.11-.04-.22-.07-.34-.07s-.23.02-.34.07c-.11.04-.21.11-.29.19-.08.08-.14.18-.19.3-.05.11-.07.23-.07.37s.02.25.07.36c.05.11.11.21.19.29.08.08.17.14.29.19.11.04.23.07.34.07s.23-.02.34-.07c.11-.04.2-.11.28-.19.08-.08.15-.18.2-.29.05-.11.07-.23.07-.36"/>
  <path class="cls-3" d="M50.08,48.08v-2.2c0-.13-.05-.23-.15-.3-.1-.08-.23-.11-.41-.11s-.32.04-.43.12c-.11.08-.17.18-.17.32v2.18h-1.25v-2.2c0-.13-.05-.23-.15-.3-.1-.08-.24-.11-.42-.11-.17,0-.31.04-.42.12-.11.08-.17.18-.17.32v2.18h-1.25v-3.57h1.1l.03.36c.1-.12.24-.23.43-.31.19-.09.42-.13.69-.13s.48.04.66.13c.18.09.33.2.43.32.11-.13.28-.23.52-.32.23-.09.49-.13.77-.13.45,0,.8.11,1.05.34.25.23.37.52.37.89v2.43h-1.25Z"/>
  <path class="cls-3" d="M56.91,48.08v-2.2c0-.13-.05-.23-.15-.3-.1-.08-.23-.11-.41-.11s-.32.04-.43.12c-.11.08-.17.18-.17.32v2.18h-1.25v-2.2c0-.13-.05-.23-.15-.3-.1-.08-.24-.11-.42-.11-.17,0-.31.04-.42.12-.11.08-.17.18-.17.32v2.18h-1.25v-3.57h1.1l.03.36c.1-.12.24-.23.43-.31.19-.09.42-.13.69-.13s.48.04.66.13c.18.09.33.2.43.32.11-.13.28-.23.52-.32.23-.09.49-.13.77-.13.45,0,.8.11,1.05.34.25.23.37.52.37.89v2.43h-1.25Z"/>
  <path class="cls-3" d="M62.52,45.82c0,.12-.01.24-.04.36l-.5.46h-1.92c.02.08.06.16.12.24.06.08.13.15.23.22.09.06.21.12.34.16.13.04.28.06.45.06.22,0,.42-.02.6-.07.18-.05.35-.12.51-.2l-.11.95c-.13.06-.29.11-.48.15-.19.04-.41.06-.67.06-.32,0-.61-.04-.89-.13-.27-.09-.51-.22-.71-.39-.2-.17-.37-.37-.48-.6-.12-.23-.17-.5-.17-.79s.05-.55.16-.78c.11-.23.25-.43.44-.59.18-.16.4-.29.64-.37.24-.09.5-.13.77-.13s.51.04.72.12c.21.08.4.18.55.31.15.13.26.28.34.45.08.17.12.35.12.53M61.38,45.81c0-.14-.05-.27-.16-.37-.1-.11-.25-.16-.43-.16s-.35.06-.5.17c-.14.11-.24.26-.28.44h1.36s0-.04,0-.08"/>
  <path class="cls-3" d="M65.73,45.45c-.17,0-.32.02-.48.07-.15.05-.29.12-.41.22-.12.1-.21.22-.29.38-.07.15-.11.34-.11.56v1.41h-1.23v-3.57h1.14l.03.56c.12-.23.29-.39.52-.48.23-.09.5-.14.82-.14l.09,1h-.1Z"/>
  <path class="cls-3" d="M69.49,45.65c-.28-.16-.6-.24-.95-.24-.29,0-.53.08-.74.23-.2.16-.3.37-.3.64,0,.14.03.26.09.37.06.11.14.2.24.28.1.08.22.14.35.18.13.04.27.06.42.06.17,0,.33-.02.48-.05.15-.03.31-.09.47-.16l-.1,1.03c-.12.06-.28.1-.46.14-.18.04-.39.06-.61.06-.28,0-.55-.04-.81-.13-.26-.09-.48-.21-.68-.38-.2-.17-.36-.36-.47-.6-.12-.23-.17-.49-.17-.79s.06-.56.17-.8c.12-.24.27-.44.47-.6.2-.16.42-.29.68-.37.26-.09.53-.13.8-.13.26,0,.49.02.69.07.2.04.38.11.54.18l-.1,1Z"/>
  <path class="cls-3" d="M71.65,43.34s-.02.1-.07.17c-.05.07-.11.13-.17.2-.07.06-.14.12-.21.16-.07.04-.14.06-.19.06s-.11-.02-.19-.06c-.07-.04-.14-.1-.21-.16-.06-.06-.12-.13-.17-.2-.05-.07-.07-.13-.07-.17s.02-.11.07-.17c.05-.07.11-.13.17-.2.07-.06.14-.12.21-.16.07-.04.14-.07.19-.07s.11.02.19.07c.07.04.14.1.21.16.07.06.13.13.17.2.05.07.07.13.07.17M70.38,44.51h1.26v3.57h-1.26v-3.57Z"/>
  <path class="cls-3" d="M75.67,48.19c-.39-.03-.66-.16-.82-.4-.13.14-.29.24-.48.3-.19.07-.39.1-.6.1-.2,0-.38-.03-.55-.08-.17-.05-.32-.13-.44-.23-.13-.1-.23-.23-.3-.37-.07-.14-.11-.31-.11-.49,0-.33.12-.6.37-.8.25-.2.56-.32.94-.36l.77-.07v-.13c0-.11-.05-.2-.14-.27-.09-.07-.25-.1-.46-.1s-.43.02-.64.07c-.2.05-.37.11-.49.17l-.09-.88c.15-.07.34-.13.58-.18.24-.05.48-.07.71-.07.54,0,.97.12,1.28.37.31.25.47.6.47,1.06v1.02c0,.16.04.28.12.37.08.09.19.14.32.16l-.43.8ZM74.48,46.52l-.52.05c-.18.02-.31.07-.39.16-.08.09-.11.19-.11.3,0,.1.04.18.11.24.08.07.18.1.29.1.15,0,.29-.05.42-.15.13-.1.19-.23.19-.38v-.33Z"/>
  <path class="cls-3" d="M77.91,48.24c-.13,0-.26-.04-.4-.1-.14-.06-.26-.14-.37-.25-.11-.11-.21-.24-.28-.4-.07-.16-.11-.34-.11-.54v-4.48h1.23v4.39c0,.17.05.3.14.39.09.1.21.16.34.18l-.55.8Z"/>
  <path class="cls-3" d="M84.96,46.52c0,.25-.05.47-.14.66-.1.19-.23.36-.4.49-.17.13-.37.24-.59.31-.22.07-.46.11-.72.11h-2.05v-5.03h1.82c.21,0,.41.03.6.09.19.06.36.15.51.26.15.11.26.25.35.42s.13.35.13.56c0,.07,0,.15-.03.24-.02.08-.05.16-.09.24-.04.08-.09.15-.14.21-.05.06-.12.11-.19.15.11.03.23.09.34.17.11.08.21.18.3.3.09.11.16.24.22.39.06.14.09.29.09.44M83.27,44.46c0-.18-.06-.31-.18-.39-.12-.08-.26-.12-.41-.12h-.42v1.02h.42c.15,0,.29-.04.41-.11.12-.08.18-.21.18-.39M83.68,46.52c0-.22-.08-.38-.25-.49-.17-.11-.35-.16-.55-.16h-.63v1.3h.63c.1,0,.2-.01.3-.04.1-.03.18-.07.26-.12.07-.05.13-.12.18-.2.05-.08.07-.18.07-.29"/>
  <path class="cls-3" d="M88.77,48.19c-.39-.03-.66-.16-.82-.4-.13.14-.29.24-.48.3-.19.07-.39.1-.6.1s-.38-.03-.55-.08c-.17-.05-.32-.13-.44-.23-.13-.1-.23-.23-.3-.37-.07-.14-.11-.31-.11-.49,0-.33.12-.6.37-.8.25-.2.56-.32.94-.36l.77-.07v-.13c0-.11-.05-.2-.14-.27-.09-.07-.25-.1-.46-.1s-.43.02-.64.07c-.2.05-.37.11-.49.17l-.09-.88c.15-.07.34-.13.58-.18.24-.05.48-.07.71-.07.54,0,.97.12,1.28.37.31.25.47.6.47,1.06v1.02c0,.16.04.28.12.37.08.09.19.14.32.16l-.43.8ZM87.58,46.52l-.52.05c-.18.02-.31.07-.39.16-.08.09-.11.19-.11.3,0,.1.04.18.11.24.08.07.18.1.29.1.15,0,.29-.05.42-.15.13-.1.19-.23.19-.38v-.33Z"/>
  <path class="cls-3" d="M92.2,48.08v-2.13c0-.13-.05-.25-.14-.35-.1-.1-.24-.15-.44-.15s-.35.05-.46.15c-.11.1-.17.22-.17.36v2.11h-1.25v-3.57h1.1l.03.36c.11-.14.26-.25.46-.33.19-.08.42-.12.7-.12.21,0,.4.03.58.09.18.06.33.15.45.26.12.11.22.25.29.41.07.16.11.34.11.53v2.38h-1.25Z"/>
  <polygon class="cls-3" points="96.64 48.08 95.49 46.64 95.49 48.08 94.26 48.08 94.26 42.47 95.49 42.47 95.49 45.97 96.66 44.51 97.98 44.51 96.65 46.22 98.1 48.08 96.64 48.08"/>
  <path class="cls-3" d="M104.23,44.57c0,.24-.05.45-.14.64-.09.19-.22.35-.38.48-.16.13-.35.23-.56.3-.21.07-.44.11-.67.11h-.72v1.98h-1.27v-5.03h1.99c.23,0,.46.04.67.11.21.07.4.17.56.3.16.13.29.29.38.48.09.19.14.4.14.64M102.97,44.57c0-.19-.07-.33-.21-.42-.14-.09-.3-.14-.47-.14h-.54v1.13h.54c.17,0,.33-.04.47-.13.14-.09.21-.23.21-.43"/>
  <path class="cls-3" d="M106.04,48.24c-.13,0-.26-.04-.4-.1-.14-.06-.26-.14-.37-.25-.11-.11-.21-.24-.28-.4-.07-.16-.11-.34-.11-.54v-4.48h1.23v4.39c0,.17.05.3.14.39.09.1.21.16.34.18l-.55.8Z"/>
  <path class="cls-3" d="M110.3,45.65c-.28-.16-.6-.24-.95-.24-.29,0-.53.08-.74.23-.2.16-.3.37-.3.64,0,.14.03.26.09.37.06.11.14.2.24.28.1.08.22.14.35.18.13.04.27.06.42.06.17,0,.33-.02.48-.05.15-.03.31-.09.47-.16l-.1,1.03c-.12.06-.28.1-.46.14-.18.04-.39.06-.61.06-.28,0-.55-.04-.81-.13-.26-.09-.48-.21-.68-.38-.2-.17-.36-.36-.47-.6-.12-.23-.17-.49-.17-.79s.06-.56.17-.8c.12-.24.27-.44.47-.6.2-.16.42-.29.68-.37.26-.09.53-.13.8-.13.26,0,.49.02.69.07.2.04.38.11.54.18l-.1,1Z"/>
</svg>